<svg width="217" height="294" viewBox="0 0 217 294" fill="none" xmlns="http://www.w3.org/2000/svg">
<g clip-path="url(#clip0_306_690)">
<path d="M85.2998 0L100.744 8.52L129.298 29.04C133 32.928 134.794 36.996 135.55 43.23C135.88 45.942 135.862 48.318 135.526 50.898C138.079 46.8715 141.129 43.1825 144.604 39.918L145.618 38.982L155.494 29.976V43.344C155.494 57.372 158.98 66.66 167.338 78.876L176.8 92.424C185.908 106.368 190.084 120.18 188.65 138.456L196.09 124.962L202.036 131.568C208.996 142.632 208.618 159.12 201.448 181.248L200.998 182.598L215.818 161.286L216.934 177.144C217.84 217.092 202.582 251.28 175.132 272.346C156.688 286.494 137.128 294.396 106.624 293.982C40.5638 293.1 -7.40018 235.86 2.22982 167.37L2.54182 165.288L7.34182 134.7L14.1338 164.91C14.2238 165.312 14.3318 165.72 14.4518 166.122L14.6498 166.728L14.7518 166.998L14.6018 165.822C11.7758 142.17 15.6518 126.894 25.7798 110.34L26.3798 109.368L26.9258 108.504L27.9038 106.986L31.3838 101.64L32.8058 99.42C37.3538 92.232 40.0958 86.892 42.3218 80.304L42.6578 79.302L43.9418 75.342C38.7578 63.204 44.5478 48.342 55.7378 39L75.1298 27.414C76.7498 25.17 78.5618 22.806 80.5718 20.274L81.5918 18.996L84.8618 14.952C84.4898 13.548 84.6338 8.562 85.2938 0L85.2998 0Z" fill="white"/>
<path fill-rule="evenodd" clip-rule="evenodd" d="M86.1942 22.7038C77.2842 58.9138 122.854 52.2958 122.854 105.294C137.758 88.1698 125.728 65.0938 149.59 43.3438C149.59 61.5118 155.866 72.6958 162.97 82.9438L164.506 85.1278L165.166 86.0518L166.486 87.9058L168.466 90.6838L169.774 92.5498C179.938 107.256 188.278 123.936 178.726 160.41C187.216 155.208 193.318 146.64 197.038 134.712C204.538 146.64 201.742 167.838 188.632 198.312C200.17 193.446 206.938 186.714 211.036 177.282C211.93 216.714 196.48 249.006 170.626 268.356C169.87 251.343 168.846 234.343 167.554 217.362C165.442 189.882 160.642 175.23 150.934 161.262C141.232 147.294 130.414 142.806 115.204 140.7C100 138.6 84.9522 141.894 68.3142 150.552C51.6822 159.216 40.8402 176.814 45.6222 186.882C50.4042 196.95 65.8182 203.442 83.8062 202.83C101.788 202.23 114.37 195.816 119.026 194.088C123.676 192.348 125.632 197.928 122.08 199.776C119.704 201.006 115.504 203.196 109.468 206.346C111.82 219.582 113.002 233.106 113.002 246.924C113.002 259.308 112.78 273.006 112.342 288.024C110.482 288.084 108.598 288.108 106.702 288.084C44.8122 287.244 -2.16778 233.316 8.37422 166.2C9.94022 173.178 15.6942 181.38 23.9322 184.8C14.7282 143.22 22.2522 126.858 31.9302 111.63L33.2022 109.65L34.4982 107.67C39.4722 100.062 44.6682 92.2198 48.2682 81.1198C46.4082 99.8398 48.2682 110.25 57.2982 121.122C62.6262 105.288 82.2762 92.0398 74.6802 72.5638C67.0782 53.0938 67.8042 45.5278 86.1942 22.7038ZM85.9602 159.888C87.1521 159.888 88.2952 160.361 89.138 161.204C89.9807 162.047 90.4542 163.19 90.4542 164.382C90.4542 165.574 89.9807 166.717 89.138 167.56C88.2952 168.402 87.1521 168.876 85.9602 168.876C84.7683 168.876 83.6253 168.402 82.7825 167.56C81.9397 166.717 81.4662 165.574 81.4662 164.382C81.4662 163.19 81.9397 162.047 82.7825 161.204C83.6253 160.361 84.7683 159.888 85.9602 159.888ZM62.5362 155.988C63.1398 155.966 63.7416 156.066 64.3058 156.281C64.8699 156.497 65.3847 156.824 65.8195 157.244C66.2544 157.663 66.6002 158.165 66.8364 158.721C67.0727 159.277 67.1944 159.875 67.1944 160.479C67.1944 161.083 67.0727 161.681 66.8364 162.236C66.6002 162.792 66.2544 163.295 65.8195 163.714C65.3847 164.133 64.8699 164.461 64.3058 164.676C63.7416 164.892 63.1398 164.992 62.5362 164.97C61.3735 164.927 60.2727 164.436 59.4651 163.598C58.6576 162.76 58.2064 161.642 58.2064 160.479C58.2064 159.315 58.6576 158.197 59.4651 157.36C60.2727 156.522 61.3735 156.03 62.5362 155.988ZM64.9362 39.8158C60.0522 44.7958 61.1142 59.3158 66.7302 72.0658C72.3462 84.8098 64.9362 94.4038 56.9982 106.206C58.3782 90.4978 56.9382 86.7658 50.1882 74.6818C43.4442 62.5978 52.6842 46.6018 64.9362 39.8158ZM112.966 22.7878C124.396 32.7178 128.446 33.7078 129.694 43.9378C130.93 54.1678 125.392 58.9138 127.606 72.2698C104.26 53.0938 122.578 46.2658 112.966 22.7878ZM87.2982 4.72782C95.5122 14.4598 100.39 11.9098 105.748 24.3598C111.106 36.8038 104.398 39.6298 108.982 54.5998C82.0002 31.3798 98.7402 29.4958 87.2982 4.71582V4.72782Z" fill="#141B1F"/>
<path d="M36.9273 198.421L19.8462 204.017L18.9189 201.186L36 195.59L36.9273 198.421Z" fill="white"/>
<path d="M21.5599 212.4C21.2417 211.594 21.1125 210.87 21.1723 210.228C21.2348 209.593 21.4266 209.036 21.7476 208.554C22.0715 208.08 22.4755 207.673 22.9596 207.334C23.4465 207.001 23.9574 206.73 24.4922 206.518C24.756 206.414 25.0306 206.306 25.3158 206.193C25.601 206.08 25.8898 205.966 26.1822 205.851L31.5195 203.743L32.6347 206.567L27.7359 208.502C27.4792 208.603 27.2332 208.7 26.9978 208.793C26.7625 208.886 26.5415 208.973 26.3347 209.055C25.8284 209.255 25.3817 209.501 24.9946 209.794C24.6146 210.085 24.3561 210.442 24.219 210.867C24.0847 211.299 24.1344 211.811 24.3681 212.403C24.5906 212.967 24.9461 213.387 25.4346 213.664C25.9303 213.938 26.4749 214.085 27.0685 214.107C27.6649 214.135 28.2234 214.046 28.7439 213.841L28.4823 215.057C27.7906 215.33 27.0959 215.48 26.3982 215.509C25.7076 215.534 25.0467 215.437 24.4156 215.216C23.7844 214.995 23.2193 214.65 22.7203 214.179C22.2311 213.713 21.8444 213.12 21.5599 212.4ZM23.2354 216.016L34.5947 211.53L35.7056 214.343L24.3463 218.829L23.2354 216.016Z" fill="white"/>
<path d="M29.1761 229.754L33.4802 227.296C33.8729 227.072 34.2158 226.876 34.5087 226.708C34.8083 226.537 35.058 226.395 35.2577 226.281C35.5174 226.132 35.7775 225.962 36.0381 225.769C36.3053 225.572 36.5265 225.349 36.7015 225.099C36.8766 224.849 36.9689 224.562 36.9785 224.239C36.9985 223.918 36.8907 223.551 36.655 223.139C36.4269 222.739 36.1497 222.447 35.8236 222.263C35.5079 222.081 35.1623 221.978 34.7867 221.954C34.4215 221.933 34.0431 221.982 33.6512 222.1C33.2661 222.214 32.8938 222.373 32.5343 222.579L32.6216 221.363C33.4937 220.865 34.3658 220.583 35.2378 220.518C36.1098 220.453 36.9167 220.606 37.6583 220.977C38.4104 221.35 39.0222 221.95 39.4936 222.776C39.9803 223.628 40.1864 224.406 40.1121 225.111C40.0444 225.812 39.7684 226.442 39.2843 227.001C38.8039 227.566 38.1875 228.064 37.4352 228.494C37.1556 228.653 36.7828 228.866 36.3168 229.132C35.8574 229.395 35.3148 229.705 34.689 230.062L30.6646 232.36L29.1761 229.754ZM25.4121 223.163L36.0175 217.106L37.5174 219.733L26.912 225.789L25.4121 223.163ZM32.9172 236.305L37.2113 233.853C37.6308 233.613 37.9869 233.41 38.2799 233.242C38.5728 233.075 38.8191 232.934 39.0189 232.82C39.2985 232.661 39.5686 232.484 39.8292 232.291C40.0965 232.095 40.3109 231.875 40.4727 231.633C40.641 231.386 40.7267 231.103 40.7296 230.784C40.7392 230.461 40.6262 230.093 40.3904 229.68C40.1585 229.274 39.8828 228.976 39.5634 228.788C39.2477 228.606 38.9092 228.508 38.5478 228.494C38.1865 228.48 37.8166 228.527 37.4381 228.638C37.0634 228.755 36.7096 228.908 36.3767 229.098L36.454 227.889C37.2995 227.406 38.1531 227.13 39.0146 227.062C39.8762 226.994 40.6745 227.147 41.4095 227.522C42.1511 227.893 42.7576 228.491 43.2291 229.317C43.7043 230.149 43.9167 230.915 43.8661 231.615C43.8155 232.315 43.5586 232.947 43.0953 233.512C42.6425 234.079 42.04 234.578 41.2877 235.008C40.9948 235.175 40.6219 235.388 40.1692 235.646C39.7165 235.905 39.1806 236.211 38.5614 236.564L34.4171 238.931L32.9172 236.305Z" fill="white"/>
<path d="M41.7293 239.606L43.3305 238.17L49.0342 244.532L48.3758 244.659C48.41 244.628 48.4471 244.595 48.4871 244.559C48.5328 244.518 48.5699 244.485 48.5984 244.46C48.9923 244.106 49.2812 243.688 49.465 243.204C49.6546 242.715 49.6938 242.196 49.5826 241.647C49.4771 241.093 49.1761 240.539 48.6797 239.985C48.1884 239.437 47.644 239.065 47.0466 238.87C46.4601 238.675 45.8501 238.66 45.2166 238.827C44.5883 238.999 43.9716 239.356 43.3665 239.899C42.7443 240.456 42.3024 241.043 42.0407 241.659C41.7848 242.269 41.7187 242.884 41.8423 243.505C41.9767 244.125 42.3075 244.73 42.8346 245.318C43.1929 245.717 43.5396 246.029 43.8748 246.254C44.21 246.479 44.5223 246.626 44.8117 246.696C45.1118 246.767 45.3771 246.781 45.6074 246.739C45.8428 246.703 46.0424 246.627 46.2062 246.512L48.2175 248.755C47.8043 249.064 47.3152 249.27 46.7503 249.375C46.1962 249.481 45.5942 249.47 44.9442 249.342C44.2999 249.209 43.636 248.939 42.9524 248.533C42.2796 248.127 41.6208 247.564 40.9759 246.845C40.1008 245.869 39.5355 244.836 39.28 243.747C39.0245 242.659 39.0693 241.589 39.4144 240.538C39.7646 239.493 40.3993 238.559 41.3183 237.735C42.2602 236.89 43.2693 236.356 44.3456 236.133C45.4271 235.915 46.4949 235.997 47.5489 236.381C48.6087 236.759 49.5659 237.424 50.4206 238.378C51.3008 239.36 51.861 240.386 52.1012 241.458C52.3464 242.536 52.2862 243.588 51.9207 244.616C51.5608 245.639 50.91 246.573 49.9681 247.417C49.8482 247.525 49.7172 247.637 49.5751 247.754C49.433 247.871 49.3254 247.952 49.2524 247.997L41.7293 239.606Z" fill="white"/>
<path d="M48.9389 254.796C48.5792 254.485 48.3825 254.098 48.3486 253.633C48.3148 253.168 48.4532 252.755 48.764 252.396C49.0698 252.042 49.4552 251.848 49.9202 251.814C50.3902 251.774 50.805 251.91 51.1647 252.221C51.5185 252.527 51.7099 252.915 51.7387 253.386C51.7784 253.856 51.6453 254.268 51.3395 254.621C51.0287 254.981 50.6379 255.175 50.1671 255.204C49.7021 255.238 49.2927 255.102 48.9389 254.796Z" fill="white"/>
<path d="M66.9575 245.727L56.384 260.263L53.9753 258.511L64.5488 243.975L66.9575 245.727Z" fill="white"/>
<path d="M63.5488 265.17C62.7484 264.733 62.1135 264.224 61.6442 263.644C61.1786 263.057 60.9048 262.431 60.8229 261.766C60.741 261.101 60.884 260.432 61.2518 259.759C61.6527 259.026 62.1804 258.533 62.8347 258.279C63.4995 258.022 64.2415 257.951 65.0606 258.067C65.8835 258.176 66.7288 258.42 67.5967 258.799C68.8871 259.347 69.8039 259.7 70.3471 259.857C70.9007 260.011 71.2455 259.964 71.3816 259.715C71.3853 259.708 71.3871 259.705 71.3871 259.705C71.3908 259.698 71.3926 259.695 71.3926 259.695C71.6501 259.224 71.6369 258.745 71.3529 258.257C71.0689 257.77 70.5401 257.315 69.7665 256.892C68.9526 256.447 68.2479 256.249 67.6525 256.299C67.0675 256.347 66.6058 256.68 66.2674 257.298L63.644 255.864C64.1038 255.023 64.7139 254.435 65.4742 254.099C66.2449 253.76 67.1031 253.653 68.0489 253.777C68.9947 253.901 69.9621 254.233 70.9509 254.774C71.8724 255.278 72.6412 255.877 73.2572 256.572C73.8733 257.268 74.2607 258.021 74.4195 258.833C74.5784 259.645 74.4298 260.469 73.9736 261.303C73.8964 261.444 73.8192 261.585 73.7419 261.726C73.6647 261.868 73.5874 262.009 73.5102 262.15L71.3032 266.186C71.1634 266.442 71.0322 266.698 70.9096 266.954C70.7973 267.207 70.7148 267.446 70.6619 267.671C70.6115 267.923 70.5929 268.148 70.6061 268.348C70.6194 268.547 70.6382 268.689 70.6626 268.772L68.0392 267.337C68.0179 267.265 68.0002 267.137 67.9864 266.955C67.9829 266.769 67.9972 266.567 68.0292 266.349C68.0723 266.11 68.1396 265.867 68.231 265.62C68.3261 265.367 68.4509 265.098 68.6054 264.816L68.9314 265.466C68.5053 265.766 67.999 265.957 67.4128 266.038C66.8369 266.116 66.2172 266.083 65.5534 265.939C64.8897 265.794 64.2215 265.538 63.5488 265.17ZM65.3367 263.435C65.8883 263.736 66.451 263.922 67.0249 263.991C67.5987 264.06 68.137 263.979 68.6396 263.747C69.1458 263.508 69.5682 263.079 69.9066 262.46L70.69 261.028L70.9385 262.107C70.4198 262.033 69.8282 261.884 69.164 261.661C68.5034 261.431 67.8471 261.177 67.1952 260.899C66.361 260.539 65.6869 260.349 65.173 260.331C64.6657 260.315 64.2871 260.536 64.0369 260.994C63.7942 261.438 63.7803 261.863 63.9952 262.269C64.2102 262.675 64.6573 263.063 65.3367 263.435Z" fill="white"/>
<path d="M82.6992 273.179L84.41 268.04C84.5069 267.749 84.5916 267.494 84.6643 267.276C84.7394 267.051 84.8072 266.847 84.8677 266.665C85.042 266.141 85.1219 265.647 85.1071 265.181C85.1021 264.711 84.9577 264.295 84.6739 263.934C84.3974 263.575 83.9427 263.291 83.3098 263.08C82.757 262.896 82.2212 262.867 81.7024 262.993C81.186 263.112 80.7267 263.363 80.3244 263.747C79.9318 264.125 79.635 264.616 79.434 265.22L78.6627 264.296C78.9848 263.329 79.4887 262.543 80.1746 261.939C80.8702 261.33 81.6604 260.935 82.5452 260.753C83.43 260.571 84.3235 260.63 85.2255 260.93C86.1566 261.24 86.878 261.682 87.3898 262.256C87.9088 262.833 88.217 263.51 88.3143 264.285C88.4188 265.064 88.321 265.904 88.0207 266.806C87.9045 267.155 87.7737 267.548 87.6284 267.984C87.4831 268.42 87.3402 268.85 87.1998 269.272L85.5798 274.138L82.6992 273.179ZM74.5048 270.451L78.3624 258.863L81.232 259.819L77.3745 271.406L74.5048 270.451Z" fill="white"/>
<path d="M94.4125 276.101C93.4189 275.954 92.5325 275.58 91.7535 274.977C90.9831 274.367 90.4132 273.555 90.0437 272.539C89.6741 271.524 89.5905 270.33 89.7929 268.957C89.9897 267.622 90.4141 266.53 91.0663 265.68C91.726 264.832 92.5121 264.231 93.4244 263.878C94.3443 263.525 95.2897 263.42 96.2606 263.563C97.2086 263.703 98.05 264.067 98.7847 264.656C99.5205 265.237 100.07 265.977 100.434 266.875C100.797 267.774 100.9 268.757 100.743 269.827C100.738 269.857 100.734 269.888 100.729 269.918C100.725 269.948 100.72 269.979 100.716 270.009L99.2317 269.825C99.235 269.802 99.2384 269.779 99.2417 269.757C99.2462 269.726 99.2501 269.7 99.2535 269.677C99.3418 269.078 99.2673 268.532 99.0298 268.04C98.8 267.549 98.4646 267.143 98.0237 266.822C97.5914 266.495 97.1098 266.292 96.5789 266.214C95.7067 266.085 94.9198 266.272 94.2182 266.773C93.5177 267.266 93.0742 268.146 92.8874 269.413C92.7019 270.672 92.8721 271.646 93.3981 272.336C93.9242 273.026 94.6233 273.435 95.4955 273.564C96.0492 273.645 96.5808 273.588 97.0901 273.392C97.5995 273.196 98.0324 272.888 98.3888 272.467C98.754 272.041 98.9812 271.524 99.0707 270.917L100.54 271.203C100.383 272.265 100.002 273.193 99.3969 273.988C98.8003 274.775 98.0669 275.361 97.1968 275.744C96.3266 276.127 95.3985 276.246 94.4125 276.101ZM98.2607 276.412L100.882 258.63L103.885 259.073L101.264 276.855L98.2607 276.412Z" fill="white"/>
</g>
<defs>
<clipPath id="clip0_306_690">
<rect width="217" height="294" fill="white"/>
</clipPath>
</defs>
</svg>
